<svg width="290" height="291" viewBox="0 0 290 291" fill="none" xmlns="http://www.w3.org/2000/svg">
<g clip-path="url(#clip0_186_28)">
<g clip-path="url(#clip1_186_28)">
<path fill-rule="evenodd" clip-rule="evenodd" d="M51.6903 284.276C46.9611 284.036 48.863 275.348 49.2023 272.157C52.947 260.501 52.0667 247.785 53.5389 235.569C54.4563 224.166 55.6354 212.797 56.6269 201.402C58.5739 178.271 72.5578 131.182 88.5165 123.608C90.5273 114.344 98.8298 105.695 109.335 105.695C116.5 96.7869 125.125 90.5173 136.186 91.7832C140.757 92.0016 145.19 97.0939 149.57 98.0773C152.023 98.4325 173.787 97.5182 178.146 100.238C181.183 101.876 183.925 104.902 183.032 108.755C181.607 113.424 186.034 108.372 195.27 113.355C214.104 125.236 202.85 141.129 202.351 141.622C214.104 158.797 224.376 172.732 229.129 193.726C232.21 209.312 231.863 225.401 234.444 241.068C235.355 246.499 236.753 251.745 238.266 257.021C239.905 263.925 240.702 281.131 241.606 281.284C243.252 281.714 240.655 285.264 238.911 285.267C190.551 293.692 141.429 285.616 92.8091 284.296C79.1078 283.796 65.3915 283.681 51.6903 284.276Z" fill="#FFFAEE"/>
<path fill-rule="evenodd" clip-rule="evenodd" d="M124.986 143.138C124.964 142.906 124.665 142.906 124.642 143.138L124.301 146.601C123.886 150.828 123.486 155.048 123.195 159.296C122.834 164.593 122.593 169.89 122.476 175.198C122.069 193.688 121.989 212.188 121.955 230.683C119.573 230.509 117.192 230.342 114.809 230.181C113.192 230.071 111.577 229.965 109.96 229.862L105.837 229.599L104.139 229.49C102.993 229.416 101.689 229.113 100.888 230.18C100.566 230.608 100.405 231.162 100.705 231.669C101.395 232.839 102.455 232.798 103.655 232.849C104.787 232.898 105.917 232.944 107.049 232.99C109.474 233.089 111.899 233.182 114.324 233.254C116.87 233.328 119.413 233.389 121.958 233.435C121.984 241.243 122.292 249.041 122.624 256.84L122.775 260.349C123.181 269.84 123.619 279.339 124.241 288.818C124.292 289.594 125.337 289.593 125.388 288.818C126.089 278.144 126.551 267.447 127.008 256.758C127.341 249.009 127.534 241.257 127.626 233.504C127.963 233.507 128.299 233.512 128.634 233.513C138.185 233.557 147.733 233.601 157.283 233.506C157.267 233.525 157.251 233.546 157.241 233.571C156.55 235.285 156.484 237.473 156.501 239.311C156.52 241.42 156.791 243.503 157.253 245.555C158.91 252.903 163.184 259.485 168.052 264.926L168.211 265.102C169.359 266.377 170.676 267.657 171.381 269.281C172.101 270.938 172.351 272.877 172.707 274.657L172.748 274.862L174.138 281.603C174.579 283.744 174.704 286.866 176.318 288.412C177.823 289.853 179.818 289.1 180.526 287.244C181.079 285.796 180.528 284.205 180.201 282.758L177.633 271.422C177.212 269.574 176.751 267.713 175.84 266.053C174.908 264.352 173.541 263.119 172.145 261.857C169.504 259.469 167.079 256.734 165.028 253.773C162.978 250.812 161.226 247.55 159.997 244.119C159.382 242.402 158.878 240.618 158.53 238.819C158.199 237.111 158.202 235.344 157.849 233.655C157.824 233.538 157.731 233.458 157.623 233.423C157.649 233.348 157.61 233.247 157.51 233.239L149.699 232.713C142.756 232.242 135.814 231.759 128.878 231.208L127.652 231.115C127.747 220.77 127.666 210.425 127.488 200.077C127.326 190.587 127.322 181.095 127.053 171.607C126.919 166.898 126.632 162.2 126.311 157.501C125.983 152.695 125.458 147.93 124.986 143.138ZM198.323 198.16C198.406 197.632 197.775 197.306 197.484 197.788C194.158 203.294 192.555 209.275 191.879 215.718C191.282 221.405 191.458 227.174 191.755 232.876C192.072 238.958 192.442 245.037 192.816 251.115L193.391 260.436L194.834 283.801C194.937 285.473 195.298 286.994 196.668 287.771C196.842 287.923 197.022 288.059 197.233 288.177C197.973 288.593 198.955 288.383 199.383 287.585L199.212 287.704C199.062 287.802 199.23 287.664 199.715 287.289L200.127 286.73C200.426 286.258 200.618 285.793 200.694 285.232C200.814 284.358 200.659 283.401 200.605 282.524L199.659 267.202C198.924 255.291 198.065 243.383 197.418 231.465C197.116 225.911 196.905 220.351 197.048 214.787C197.191 209.253 197.459 203.626 198.323 198.16ZM169.552 95.59L169.367 95.5574C162.761 94.4049 155.578 94.6207 149.541 97.9654C149.491 97.9929 149.514 98.0799 149.57 98.0774L151.513 97.9959C157.665 97.7428 163.797 97.5931 169.846 99.1112L170.465 99.2679C172.644 99.826 174.918 100.509 176.668 102.02C178.34 103.465 179.173 105.693 179.974 107.744L180.081 108.015C180.893 110.041 181.922 111.962 183.702 113.229C186.009 114.87 188.782 114.669 191.427 114.892C196.083 115.285 199.89 118.829 201.784 123.167C202.931 125.793 203.42 128.738 203.517 131.609C203.567 133.072 203.574 134.591 203.388 136.043C203.329 136.508 202.782 138.2 202.504 138.159C201.884 138.069 201.318 138.409 201.125 138.928C199.595 137.376 198.021 135.868 196.397 134.415C192.347 130.792 187.985 127.51 183.391 124.688C179.885 122.535 176.188 120.401 172.358 118.789C172.662 118.782 172.961 118.845 173.25 119.003C173.377 119.073 173.503 118.906 173.403 118.795C172.197 117.462 170.752 117.273 169.296 117.628C168.985 117.524 168.674 117.424 168.362 117.328C168.206 117.281 168.129 117.506 168.256 117.593L168.613 117.833C167.024 118.392 165.464 119.491 164.229 120.358C160.682 122.848 157.559 125.892 154.393 128.88L153.818 129.422C151.032 132.035 148.174 134.574 145.008 136.671C143.351 137.768 141.611 138.783 139.785 139.537C138.219 140.186 135.67 140.594 134.936 142.332C134.284 143.164 134.557 144.226 135.32 144.785C136.608 146.274 139.184 145.312 140.718 144.693C142.568 143.945 144.36 143.046 146.069 141.993C149.387 139.947 152.446 137.403 155.296 134.697C158.272 131.871 161.08 128.868 163.974 125.953C165.229 124.691 166.454 123.398 167.71 122.136L168.341 121.509C168.982 120.877 169.896 119.893 170.872 119.297C172.712 120.45 174.581 121.555 176.404 122.738C178.949 124.388 181.42 126.157 183.852 127.987C188.534 131.505 192.971 135.446 197.09 139.671C204.645 147.418 211.081 156.265 216.703 165.633L217.13 166.347C220.326 171.709 223.347 177.244 225.489 183.169C227.847 189.687 228.993 196.544 229.616 203.463C230.234 210.335 230.443 217.241 231.133 224.105C231.842 231.145 233.238 238.03 234.825 244.902L235.204 246.532C236.64 252.685 238.123 258.84 238.862 265.14C239.256 268.505 239.493 271.916 239.439 275.308C239.385 278.72 238.875 282.057 238.463 285.433C238.305 286.726 239.517 287.806 240.601 287.978C241.848 288.175 242.92 287.338 243.307 286.122C244.516 282.329 244.735 278.135 244.697 274.155C244.659 270.113 244.168 266.097 243.477 262.125C242.118 254.312 240.021 246.661 238.266 238.941C236.72 232.136 235.682 225.321 235.122 218.35C234.542 211.119 234.194 203.862 233.135 196.684C232.089 189.595 230.122 182.824 227.155 176.362C224.453 170.477 221.085 164.939 217.555 159.57C213.267 153.051 208.558 146.848 203.295 141.195C203.768 141.174 204.253 141.014 204.699 140.722C206.063 139.828 206.698 138.079 206.893 136.484C207.351 132.75 207.24 128.851 206.326 125.202C204.851 119.312 201.023 114.079 195.476 111.957C194.048 111.41 192.53 111.211 191.017 111.171C189.581 111.134 188.013 111.33 186.627 110.852C184.422 110.091 183.476 107.363 182.648 105.295L182.61 105.2C181.548 102.564 180.274 100.306 177.974 98.66C175.521 96.9042 172.447 96.1056 169.552 95.59ZM106.786 106.012C104.801 105.289 102.318 105.945 100.377 106.577C98.2147 107.281 96.2155 108.578 94.5024 110.119C92.6955 111.743 91.2013 113.749 90.1461 115.99L90.0442 116.206C89.0805 118.284 87.9825 121.138 88.4689 123.421C88.4828 123.486 88.4991 123.549 88.5164 123.608C84.5783 125.645 80.9413 128.196 77.7734 131.429C74.0855 135.193 70.9628 139.477 68.3196 144.104C57.8233 162.483 55.9758 184.557 54.7365 205.518L54.4272 210.833C53.7543 222.309 52.9655 233.757 50.92 245.076L50.7706 245.893C48.5826 257.742 45.4518 269.683 45.7691 281.838C45.8641 285.481 50.9895 285.456 51.1377 281.838C51.6972 268.223 54.7214 255.077 56.7704 241.674C60.375 218.094 58.5692 193.784 63.6761 170.439C65.6799 161.278 68.784 152.392 73.2179 144.215C75.4082 140.176 77.9136 136.272 80.8486 132.787C83.3737 129.788 85.9983 126.902 88.9485 124.381C89.8913 125.373 91.7758 124.867 92.2681 123.421C92.6063 122.428 92.5078 121.265 92.7244 120.224C92.926 119.258 93.204 118.3 93.5735 117.39C94.3113 115.577 95.3943 113.835 96.644 112.368C97.9934 110.781 99.5455 109.463 101.282 108.375C103.03 107.279 104.942 106.952 106.786 106.151C106.847 106.124 106.853 106.037 106.786 106.012ZM99.0729 232.033C99.0706 231.937 98.9629 231.892 98.8969 231.956C98.2008 232.629 97.7803 233.594 97.2684 234.421C96.6776 235.375 96.0568 236.31 95.4058 237.221C94.1028 239.044 92.6526 240.764 91.1897 242.448C89.8299 244.014 88.3797 245.514 86.8763 246.928C85.2478 248.462 83.4212 249.829 81.9409 251.525C78.8529 255.066 78.3537 259.926 77.7016 264.489L77.631 264.983C77.2337 267.69 76.8769 270.406 76.5561 273.125C76.3997 274.448 76.2445 275.771 76.1171 277.098L76.0777 277.518C75.9642 278.816 75.9341 280.133 76.6441 281.267C77.4039 282.481 79.1309 282.906 80.1583 281.742C81.9224 279.743 81.5923 276.193 81.8216 273.621C82.0104 271.495 82.2258 269.371 82.4668 267.251L82.5895 266.19C82.8733 263.778 83.1038 261.317 83.6297 258.947C84.093 256.859 84.9756 255.283 86.4234 253.771C87.8817 252.247 89.3979 250.826 90.7449 249.185C92.1731 247.445 93.4611 245.579 94.6228 243.631C95.6155 241.966 96.4112 240.154 97.1409 238.343L97.2614 238.042C97.9656 236.276 99.1285 233.978 99.0729 232.033ZM73.5967 156.197C73.5805 155.952 73.2341 155.947 73.2295 156.197C73.1855 158.316 73.1438 160.433 73.1009 162.551C72.765 179.619 72.9724 196.726 71.3415 213.735C70.5736 221.754 69.157 229.657 67.5192 237.525C66.6806 241.552 65.8015 245.568 64.9652 249.595C64.1509 253.52 63.2776 257.464 62.6313 261.424C61.9966 265.317 61.4279 269.241 61.173 273.183L61.1418 273.698C61.0317 275.608 60.507 278.417 61.5089 280.11C62.5942 281.944 64.671 281.977 65.8339 280.227C66.925 278.583 66.654 275.659 66.8463 273.698C67.0432 271.701 67.2505 269.701 67.4856 267.708C67.9443 263.819 68.5501 259.941 69.179 256.078C70.4902 248.036 72.3921 240.096 73.7947 232.067C75.2333 223.84 76.2561 215.553 76.2989 207.176C76.3418 198.729 75.4905 190.298 75.0607 181.869C74.6241 173.307 74.1272 164.753 73.5967 156.197ZM150.356 103.112C149.919 101.569 148.38 100.604 146.878 101.038C145.501 101.435 144.365 103.19 144.903 104.691C145.49 106.329 146.516 107.726 147.382 109.215C148.181 110.591 149.347 111.675 150.161 113.026L149.264 114.042C148.815 114.549 148.365 115.053 147.91 115.548L146.345 117.25C145.126 118.573 143.9 119.889 142.639 121.167C138.931 124.923 135.165 128.556 131.012 131.774C130.067 132.506 129.114 133.233 128.135 133.915L127.769 134.169C127.097 134.631 126.348 135.085 125.536 135.007C123.565 134.816 121.782 132.616 120.427 131.247L120.356 131.176C116.997 127.82 113.887 124.15 111.169 120.204C110.565 119.327 109.98 118.435 109.412 117.533C110.725 115.92 110.411 112.772 110.484 110.816C110.535 109.44 110.539 108.065 110.547 106.688L110.55 106.411C110.567 105.52 110.605 104.666 110.053 103.933C110.022 103.89 109.955 103.891 109.914 103.914C109.16 104.329 108.929 105.023 108.607 105.803L108.573 105.884C108.182 106.819 107.806 107.763 107.428 108.704C107.03 109.689 106.667 110.688 106.297 111.685C106.126 112.149 105.961 112.614 105.801 113.082C105.703 113.381 105.602 113.678 105.499 113.975L105.474 113.998C105.337 114.12 105.221 114.249 105.12 114.382C104.7 114.603 104.366 115.006 104.209 115.598C103.867 116.886 104.574 117.936 105.204 118.958C107.763 123.112 110.681 127.07 113.925 130.661C115.537 132.444 117.231 134.147 118.995 135.764L119.303 136.045C120.888 137.475 122.609 138.83 124.726 139.165C127.203 139.557 129.219 138.263 131.115 136.772L131.304 136.622C133.102 135.193 134.863 133.713 136.57 132.166C140.049 129.011 143.359 125.622 146.297 121.906C149.155 118.29 151.979 114.248 153.741 109.897C153.848 109.632 153.566 109.355 153.345 109.576C152.484 110.437 151.657 111.344 150.838 112.263C150.816 110.91 151.053 109.546 150.921 108.186C150.76 106.532 150.806 104.704 150.356 103.112Z" fill="#001020"/>
<path fill-rule="evenodd" clip-rule="evenodd" d="M132.587 5.46452C118.692 5.46452 104.321 16.7769 99.2271 23.9957C94.945 30.0649 92.64 57.5095 92.64 76.0567C92.64 79.9357 90.6014 87.2481 91.1968 90.9585C93.3755 104.555 102.871 115.958 121.664 115.958C140.457 115.958 153.932 108.134 167.9 87.1264C174.678 87.1264 177.962 81.6671 178.01 73.0518C178.058 64.4365 171.468 61.3019 171.468 61.3019C171.468 61.3019 173.817 27.3022 167.9 18.4502C161.983 9.5983 146.481 5.46452 132.587 5.46452Z" fill="#FFFAEE"/>
<path fill-rule="evenodd" clip-rule="evenodd" d="M138.023 1.00004C129.25 0.0670192 120.653 0.850963 112.008 2.47308C111.347 2.59877 110.973 3.05397 110.833 3.60118C106.762 3.79653 102.685 4.11037 98.6179 4.34426C97.1423 4.42908 96.3048 5.96073 96.9778 7.3438C97.1121 7.61857 97.2523 7.88588 97.3948 8.1532L97.2164 8.09145C95.9921 7.67921 94.6705 7.47597 93.4786 8.13032C91.9613 8.96309 91.3671 10.8006 91.7018 12.4919C91.7875 12.9237 91.9323 13.3376 92.0956 13.7413C91.7632 13.7182 91.4285 13.7259 91.0949 13.7721C89.3239 14.0188 88.0069 15.4454 87.9143 17.3448C87.7776 20.2131 89.537 23.1229 91.6092 25.1763C91.308 25.8269 91.1934 26.5928 91.3185 27.3691C91.5675 28.9035 92.6435 29.8224 93.8921 30.4218C93.3709 32.157 93.1254 33.9711 93.2701 35.8251C93.3188 36.444 93.8342 36.9552 94.3786 37.0806C92.3505 42.9446 91.3242 49.2403 90.5864 55.3748C90.0606 59.7394 89.8011 64.1295 89.7687 68.5271C89.7536 70.5124 89.7849 72.5001 89.8648 74.4859L89.8961 75.2304C89.9945 77.3769 89.9992 79.6307 90.3663 81.7541C89.1131 83.9925 88.6092 86.7713 88.3961 89.2797C88.132 92.3846 88.5502 95.5872 89.4826 98.5408C93.0014 109.701 103.622 116.743 114.289 118.574C124.162 120.268 135.588 117.988 141.358 108.567C141.448 108.418 141.255 108.295 141.143 108.393C137.014 111.919 132.226 113.492 127.023 114.258C118.027 115.579 107.917 113.338 100.698 107.395C97.2326 104.542 94.7342 100.389 93.635 95.9188C93.0756 93.634 92.8821 91.2512 93.1022 88.8995C93.3269 86.5143 94.3323 84.4786 94.967 82.2244C95.179 81.4633 94.9543 80.7565 94.5118 80.253C94.3867 78.4228 94.0925 76.5773 93.9802 74.7526C93.8562 72.6781 93.7798 70.6039 93.7531 68.5271C93.701 64.2193 93.8724 59.9037 94.2176 55.6142C94.8489 47.759 96.5249 40.0946 97.5094 32.3063C97.8731 32.6494 98.3955 32.7904 98.9422 32.4906L98.999 32.458L99.2978 32.2784C99.3152 32.2784 99.3349 32.2809 99.3522 32.2832C101.395 32.4917 103.514 32.1935 105.471 31.5532C107.52 30.8852 109.421 29.857 111.12 28.4871C111.442 30.2064 111.578 31.9439 111.58 33.6969C111.582 34.7919 112.685 35.3602 113.562 34.8923C117.446 32.8204 121.154 30.4329 124.677 27.7495C125.088 29.9625 125.498 32.1752 125.913 34.3909C126.071 35.2444 127.107 35.5889 127.769 35.1827C130.407 33.5709 132.686 31.461 134.54 28.9521C134.911 29.6959 135.282 30.4397 135.656 31.1818L136.219 32.2934C136.775 33.3859 137.518 34.5941 138.735 34.9435C140.022 35.3136 141.096 34.4374 141.529 33.2137C141.661 32.8335 141.784 32.4425 141.896 32.0494C142.993 34.679 144.231 37.2493 145.631 39.7014C147.73 43.3792 150.251 46.6564 152.764 50.0184C153.527 51.0389 154.834 50.0646 154.939 49.0727C155 48.4892 155.052 47.9031 155.096 47.3195C156.56 50.4233 158.088 53.4982 159.753 56.4839L159.515 57.465C158.828 60.3638 158.257 63.2831 157.637 66.1973C157.437 67.1375 157.913 68.4818 158.959 68.642C160.208 68.8332 161.39 69.5037 162.67 69.0424C164.066 68.5391 164.341 67.2723 165 66.0713C165.132 65.8321 165.284 65.6124 165.449 65.4037L165.491 65.4607C165.594 65.6023 165.838 65.4481 165.777 65.2862L165.705 65.099C166.271 64.468 166.949 63.9416 167.571 63.3754C169.052 63.1135 170.716 63.4003 171.736 64.0319C174.058 65.4709 175.125 68.4371 175.147 71.1644C175.174 74.3567 174.232 77.9449 172.641 80.6746C171.941 81.8749 170.982 82.9593 169.715 83.4916C168.457 84.0209 167.094 83.8566 165.814 84.3549C164.967 84.6868 164.446 85.6738 164.957 86.5681C164.992 86.63 165.031 86.6863 165.068 86.7456L164.687 87.2762C164.425 87.6439 164.152 88.0374 163.898 88.4469C163.247 89.2337 162.562 89.992 161.898 90.7655C160.673 92.1918 159.483 93.6572 158.277 95.104C157.139 96.4691 155.935 97.7514 154.694 99.0134C153.522 100.209 152.059 101.214 150.982 102.489C149.935 103.733 149.651 105.904 151.374 106.624C153.28 107.423 154.967 105.552 156.251 104.304L156.304 104.252C158.657 101.978 160.781 99.3802 162.467 96.5197C164.138 97.7144 166.555 97.8285 168.219 96.6341C169.094 96.0056 169.766 94.9495 170.092 93.8005C170.4 93.873 170.708 93.9155 171.008 93.9106C171.162 94.0047 171.317 94.0962 171.474 94.1815C172.715 94.8598 174.239 94.5567 174.807 93.1146C175.324 91.8053 174.791 90.3185 174.325 89.057L174.229 88.7965C173.965 88.077 173.674 87.2931 173.312 86.5554C174.32 85.7586 175.181 84.7688 175.91 83.6433C178.36 79.8521 179.583 74.3076 179.043 69.7842C178.717 67.0546 177.496 64.2272 175.497 62.3866L175.57 62.1861C176.131 60.693 176.64 59.1943 176.97 57.6164C177.357 55.7709 177.545 53.8585 177.716 51.9797C178.078 48.0111 177.981 43.9526 177.498 39.9995C176.593 32.5584 174.298 25.2537 170.223 19.0618C171.379 17.6093 172.294 15.9001 171.817 13.9341C171.599 13.0316 171.102 12.176 170.353 11.6591C169.94 11.374 169.448 11.3303 169.034 11.0939L168.91 11.022C168.728 10.9106 168.867 10.9224 168.975 10.405C169.404 8.33826 169.049 6.34139 166.883 5.65511C164.845 5.00996 162.917 6.37994 161.71 8.01209C158.553 5.66 154.393 4.42908 150.735 3.38297C146.575 2.1978 142.308 1.45781 138.023 1.00004ZM172.12 70.3212C172.135 68.6376 170.615 67.5993 169.12 67.8745C168.116 68.058 167.278 68.6875 166.491 69.3381L166.108 69.6567C165.15 70.4466 164.05 71.2982 163.479 72.4163C162.643 74.0664 164.412 76.2869 166.063 75.1302C167.196 74.3327 167.923 73.0547 168.666 71.8676L168.743 71.7451C169.08 71.2132 169.377 70.6476 169.839 70.2209L169.939 70.129C170.091 69.9929 170.255 69.8686 170.451 69.8097C170.83 69.6953 171.532 69.8556 171.699 70.3293L171.714 70.3778C171.775 70.617 172.117 70.5653 172.12 70.3212Z" fill="#001020"/>
<path fill-rule="evenodd" clip-rule="evenodd" d="M117.816 97.7934C119.461 97.0885 120.928 95.9127 122.002 94.4107C122.375 93.8886 122.471 93.3372 122.394 92.8329C122.306 92.2658 121.986 91.7519 121.55 91.4072C121.114 91.0613 120.567 90.8908 120.039 90.9778C119.579 91.0533 119.123 91.3173 118.76 91.8649L118.685 91.9745C118.047 92.881 117.216 93.6248 116.269 94.1042C115.356 94.5663 114.334 94.782 113.278 94.6566C111.265 94.4179 109.879 93.2747 108.404 91.7223C108.221 91.5263 108.038 91.3241 107.855 91.1187C107.739 90.9325 107.578 90.813 107.399 90.7501C107.201 90.6804 106.976 90.6843 106.77 90.7597C106.572 90.8325 106.394 90.9702 106.275 91.1538C106.163 91.328 106.098 91.5434 106.119 91.791C106.254 93.3998 107.055 94.8356 108.192 95.963C109.456 97.2151 111.131 98.0813 112.707 98.3851C114.443 98.7198 116.213 98.48 117.816 97.7934ZM111.887 72.9746C110.04 74.1544 107.224 76.9054 109.211 79.8302C111.552 82.4091 114.921 79.4522 116.581 78.115C118.121 77.0786 119.85 79.7441 118.422 80.9543C106.426 90.2832 101.556 73.2831 110.952 71.5875C111.988 71.4006 112.371 72.6097 111.887 72.9746ZM133.385 62.1226C133.181 59.4607 129.321 58.8563 128.937 61.4903C128.594 63.8498 128.998 66.0174 130.01 68.1417C130.977 70.1713 133.407 69.2244 133.591 67.3764C133.837 64.8991 133.512 63.7784 133.385 62.1226ZM104.005 60.9441C103.466 60.2039 102.69 59.6986 101.759 59.9841C98.8506 60.8768 99.7077 65.2137 100.729 67.3247C101.284 68.471 103.078 68.7617 103.889 67.7524C105.211 66.1064 105.843 62.8192 104.164 61.1978C104.117 61.114 104.067 61.0295 104.005 60.9441ZM130.051 50.475L129.592 50.3906C128.17 50.1324 126.404 49.8844 125.398 51.0844C124.864 51.7208 124.681 52.9038 125.398 53.5129C126.658 54.5847 128.053 54.1693 129.563 54.26C130.808 54.3352 132.005 54.5515 133.204 54.9116C135.835 55.7015 137.979 57.1435 140.227 58.7267C140.521 58.9345 140.822 58.5384 140.682 58.2487C139.384 55.5799 136.871 53.3877 134.353 52.0514C133.009 51.3381 131.538 50.7465 130.051 50.475ZM106.656 49.2796L106.304 49.3551C102.478 50.1953 97.5059 51.8735 95.6943 55.8214C95.6248 56.3796 95.6978 56.4993 95.758 56.5774L95.7777 56.6034C95.8264 56.6701 95.8646 56.7622 96.0951 56.8382C96.1599 56.8222 96.2236 56.8053 96.2897 56.7873C97.1202 56.5586 97.7769 56.2436 98.4128 55.9169L99.1031 55.5598C99.9035 55.1477 100.711 54.7505 101.567 54.4573C103.392 53.8317 105.271 53.391 107.177 53.1556C107.591 53.1047 107.989 52.9581 108.303 52.707C108.602 52.4686 108.829 52.1386 108.933 51.6998C109.068 51.132 109.03 50.7021 108.739 50.1898C108.521 49.8052 108.208 49.5386 107.85 49.3855C107.486 49.2293 107.07 49.1926 106.656 49.2796Z" fill="#001020"/>
</g>
</g>
<defs>
<clipPath id="clip0_186_28">
<rect width="289.44" height="289.44" fill="white" transform="matrix(-1 0 0 1 289.72 0.600006)"/>
</clipPath>
<clipPath id="clip1_186_28">
<rect width="200.382" height="289.44" fill="white" transform="matrix(-1 0 0 1 245.191 0.600006)"/>
</clipPath>
</defs>
</svg>
