<svg width="495" height="496" viewBox="0 0 495 496" fill="none" xmlns="http://www.w3.org/2000/svg">
<g clip-path="url(#clip0_187_319)">
<g clip-path="url(#clip1_187_319)">
<path fill-rule="evenodd" clip-rule="evenodd" d="M88.1378 485.375C80.0609 484.966 83.3091 470.128 83.8887 464.678C90.2842 444.772 88.7808 423.055 91.2951 402.191C92.8618 382.715 94.8756 363.299 96.569 343.837C99.8943 304.332 123.777 223.91 151.033 210.974C154.467 195.152 168.647 180.381 186.589 180.381C198.826 165.166 213.556 154.459 232.447 156.621C240.254 156.994 247.825 165.691 255.305 167.37C259.494 167.977 296.664 166.416 304.11 171.06C309.297 173.858 313.979 179.027 312.454 185.607C310.021 193.58 317.582 184.953 333.356 193.463C365.521 213.753 346.301 240.898 345.449 241.739C365.521 271.073 383.066 294.871 391.183 330.727C396.444 357.346 395.852 384.825 400.26 411.581C401.816 420.857 404.204 429.817 406.787 438.827C409.587 450.619 410.949 480.004 412.492 480.266C415.304 481.001 410.867 487.064 407.888 487.068C325.296 501.458 241.401 487.664 158.364 485.411C134.964 484.557 111.538 484.36 88.1378 485.375Z" fill="#FFFAEE"/>
<path fill-rule="evenodd" clip-rule="evenodd" d="M213.318 244.329C213.28 243.933 212.77 243.933 212.73 244.329L212.149 250.243C211.439 257.462 210.756 264.67 210.26 271.925C209.642 280.972 209.231 290.018 209.031 299.084C208.337 330.663 208.2 362.258 208.141 393.846C204.074 393.549 200.007 393.264 195.937 392.988C193.176 392.801 190.416 392.62 187.655 392.444L180.614 391.995L177.714 391.808C175.756 391.681 173.53 391.164 172.161 392.986C171.612 393.717 171.337 394.664 171.849 395.53C173.028 397.528 174.838 397.458 176.887 397.545C178.82 397.628 180.751 397.707 182.684 397.786C186.826 397.954 190.966 398.114 195.109 398.236C199.457 398.363 203.801 398.467 208.147 398.546C208.19 411.88 208.717 425.198 209.284 438.518L209.542 444.512C210.236 460.721 210.984 476.945 212.046 493.133C212.133 494.458 213.917 494.456 214.004 493.133C215.201 474.903 215.99 456.634 216.772 438.379C217.34 425.144 217.67 411.905 217.826 398.664C218.402 398.668 218.976 398.677 219.549 398.679C235.861 398.754 252.167 398.828 268.478 398.666C268.45 398.7 268.424 398.735 268.406 398.779C267.225 401.705 267.113 405.442 267.142 408.582C267.175 412.184 267.637 415.742 268.427 419.245C271.257 431.795 278.556 443.036 286.87 452.328L287.141 452.629C289.102 454.806 291.352 456.993 292.556 459.766C293.786 462.597 294.213 465.908 294.819 468.948L294.89 469.297L297.263 480.81C298.017 484.468 298.231 489.8 300.987 492.44C303.558 494.901 306.964 493.615 308.174 490.446C309.119 487.972 308.178 485.255 307.618 482.783L303.234 463.424C302.513 460.267 301.726 457.089 300.171 454.254C298.579 451.348 296.244 449.242 293.861 447.088C289.349 443.009 285.208 438.337 281.705 433.28C278.204 428.224 275.211 422.652 273.113 416.792C272.062 413.86 271.201 410.813 270.607 407.741C270.043 404.825 270.048 401.807 269.444 398.922C269.402 398.722 269.242 398.585 269.059 398.525C269.102 398.396 269.036 398.224 268.865 398.212L255.525 397.312C243.668 396.508 231.811 395.684 219.965 394.743L217.872 394.583C218.034 376.916 217.895 359.247 217.591 341.573C217.314 325.366 217.308 309.155 216.849 292.95C216.62 284.908 216.129 276.885 215.581 268.859C215.021 260.651 214.125 252.513 213.318 244.329ZM338.569 338.3C338.711 337.398 337.633 336.842 337.136 337.664C331.456 347.069 328.718 357.284 327.563 368.288C326.544 378 326.844 387.853 327.352 397.59C327.894 407.978 328.525 418.361 329.164 428.742L330.146 444.66L332.61 484.566C332.786 487.421 333.403 490.018 335.743 491.345C336.039 491.605 336.348 491.837 336.708 492.039C337.972 492.749 339.649 492.39 340.38 491.027L340.087 491.231C339.832 491.399 340.118 491.162 340.947 490.522L341.651 489.567C342.162 488.761 342.488 487.968 342.619 487.008C342.823 485.517 342.559 483.882 342.466 482.385L340.851 456.216C339.596 435.874 338.129 415.536 337.024 395.181C336.509 385.695 336.148 376.199 336.392 366.697C336.635 357.246 337.094 347.636 338.569 338.3ZM289.431 163.122L289.116 163.067C277.834 161.098 265.566 161.467 255.256 167.179C255.17 167.226 255.209 167.375 255.305 167.37L258.624 167.231C269.13 166.799 279.604 166.543 289.934 169.136L290.992 169.404C294.712 170.357 298.597 171.524 301.585 174.104C304.441 176.571 305.863 180.377 307.231 183.88L307.414 184.343C308.801 187.803 310.558 191.085 313.599 193.248C317.538 196.05 322.275 195.707 326.791 196.088C334.744 196.759 341.246 202.812 344.48 210.221C346.439 214.705 347.275 219.735 347.44 224.639C347.525 227.138 347.537 229.732 347.22 232.212C347.119 233.005 346.185 235.895 345.709 235.826C344.652 235.672 343.685 236.252 343.355 237.139C340.742 234.488 338.054 231.913 335.279 229.431C328.363 223.243 320.913 217.638 313.068 212.819C307.08 209.141 300.764 205.497 294.224 202.743C294.742 202.731 295.254 202.839 295.748 203.11C295.965 203.229 296.18 202.943 296.009 202.754C293.949 200.478 291.481 200.154 288.994 200.761C288.463 200.584 287.932 200.412 287.399 200.249C287.133 200.168 287.001 200.552 287.218 200.7L287.829 201.11C285.115 202.065 282.451 203.942 280.342 205.423C274.282 209.676 268.949 214.875 263.543 219.978L262.56 220.903C257.801 225.366 252.921 229.703 247.514 233.284C244.684 235.157 241.711 236.892 238.593 238.179C235.919 239.286 231.564 239.984 230.312 242.952C229.199 244.373 229.664 246.186 230.968 247.142C233.167 249.684 237.566 248.041 240.186 246.984C243.345 245.706 246.406 244.172 249.325 242.373C254.991 238.879 260.217 234.534 265.084 229.913C270.167 225.086 274.962 219.958 279.906 214.979C282.048 212.823 284.141 210.615 286.286 208.461L287.364 207.389C288.459 206.31 290.019 204.629 291.687 203.611C294.829 205.58 298.02 207.468 301.134 209.487C305.481 212.306 309.7 215.328 313.854 218.452C321.851 224.461 329.429 231.192 336.463 238.408C349.366 251.638 360.358 266.749 369.961 282.748L370.69 283.967C376.147 293.125 381.308 302.577 384.966 312.696C388.992 323.829 390.95 335.54 392.014 347.358C393.07 359.093 393.426 370.888 394.606 382.611C395.815 394.635 398.199 406.393 400.911 418.13L401.557 420.913C404.011 431.423 406.543 441.935 407.805 452.694C408.478 458.441 408.883 464.267 408.791 470.06C408.699 475.888 407.828 481.587 407.124 487.353C406.855 489.561 408.924 491.405 410.776 491.698C412.906 492.035 414.736 490.606 415.398 488.529C417.461 482.05 417.836 474.889 417.771 468.091C417.706 461.187 416.867 454.328 415.687 447.545C413.366 434.202 409.784 421.133 406.787 407.949C404.146 396.328 402.374 384.688 401.419 372.783C400.427 360.433 399.833 348.039 398.024 335.778C396.238 323.671 392.878 312.109 387.81 301.071C383.196 291.021 377.445 281.562 371.415 272.392C364.092 261.259 356.05 250.664 347.061 241.01C347.868 240.975 348.697 240.701 349.459 240.202C351.788 238.676 352.873 235.689 353.207 232.964C353.987 226.587 353.799 219.929 352.237 213.695C349.719 203.637 343.181 194.7 333.707 191.074C331.268 190.141 328.676 189.801 326.091 189.733C323.639 189.669 320.961 190.005 318.594 189.188C314.828 187.888 313.213 183.229 311.799 179.697L311.734 179.535C309.92 175.034 307.744 171.176 303.816 168.366C299.626 165.367 294.375 164.003 289.431 163.122ZM182.234 180.922C178.844 179.687 174.605 180.808 171.289 181.887C167.596 183.09 164.181 185.305 161.256 187.935C158.17 190.71 155.618 194.136 153.816 197.963L153.642 198.331C151.996 201.881 150.12 206.755 150.951 210.655C150.975 210.765 151.003 210.873 151.032 210.975C144.306 214.454 138.095 218.809 132.685 224.332C126.386 230.76 121.053 238.075 116.538 245.979C98.612 277.369 95.4568 315.068 93.3401 350.866L92.8119 359.945C91.6626 379.543 90.3154 399.096 86.8219 418.427L86.5667 419.823C82.8299 440.059 77.4828 460.453 78.0248 481.213C78.187 487.434 86.9406 487.392 87.1938 481.213C88.1493 457.959 93.3144 435.508 96.8138 412.618C102.97 372.344 99.886 330.827 108.608 290.956C112.03 275.31 117.332 260.133 124.904 246.168C128.645 239.27 132.924 232.603 137.937 226.65C142.249 221.528 146.732 216.599 151.77 212.293C153.38 213.988 156.599 213.124 157.44 210.655C158.017 208.958 157.849 206.973 158.219 205.194C158.563 203.544 159.038 201.908 159.669 200.354C160.929 197.257 162.779 194.283 164.913 191.777C167.218 189.067 169.869 186.816 172.834 184.957C175.819 183.086 179.085 182.527 182.234 181.16C182.339 181.114 182.349 180.965 182.234 180.922ZM169.062 396.151C169.058 395.987 168.874 395.91 168.761 396.02C167.572 397.169 166.854 398.818 165.98 400.23C164.971 401.859 163.91 403.456 162.799 405.012C160.573 408.125 158.096 411.062 155.598 413.939C153.276 416.614 150.799 419.175 148.231 421.59C145.45 424.21 142.33 426.544 139.802 429.442C134.528 435.49 133.676 443.79 132.562 451.583L132.441 452.426C131.763 457.049 131.153 461.687 130.605 466.331C130.338 468.591 130.073 470.851 129.856 473.117L129.788 473.834C129.595 476.052 129.543 478.301 130.756 480.237C132.053 482.31 135.003 483.037 136.758 481.049C139.77 477.635 139.207 471.572 139.598 467.179C139.921 463.548 140.289 459.92 140.7 456.299L140.91 454.488C141.395 450.367 141.788 446.166 142.686 442.118C143.478 438.551 144.985 435.86 147.458 433.278C149.948 430.675 152.538 428.247 154.838 425.445C157.277 422.473 159.477 419.287 161.461 415.96C163.157 413.116 164.516 410.021 165.762 406.929L165.968 406.414C167.17 403.398 169.157 399.472 169.062 396.151ZM125.551 266.632C125.523 266.213 124.932 266.205 124.924 266.632C124.849 270.251 124.778 273.867 124.704 277.485C124.131 306.634 124.485 335.851 121.7 364.9C120.388 378.596 117.969 392.093 115.171 405.531C113.739 412.408 112.238 419.268 110.81 426.145C109.419 432.848 107.927 439.584 106.823 446.348C105.739 452.997 104.768 459.697 104.333 466.431L104.28 467.31C104.092 470.573 103.195 475.371 104.907 478.262C106.76 481.394 110.307 481.45 112.293 478.461C114.157 475.653 113.694 470.66 114.022 467.31C114.358 463.899 114.713 460.485 115.114 457.08C115.897 450.438 116.932 443.815 118.006 437.218C120.246 423.483 123.494 409.922 125.889 396.209C128.346 382.158 130.093 368.005 130.166 353.699C130.239 339.272 128.785 324.872 128.052 310.476C127.306 295.854 126.457 281.244 125.551 266.632ZM256.647 175.969C255.901 173.334 253.272 171.686 250.707 172.426C248.356 173.105 246.415 176.102 247.334 178.666C248.337 181.464 250.09 183.85 251.567 186.393C252.932 188.743 254.923 190.593 256.314 192.901L254.782 194.636C254.015 195.502 253.246 196.362 252.469 197.207L249.797 200.115C247.715 202.375 245.621 204.623 243.467 206.804C237.135 213.22 230.702 219.424 223.61 224.92C221.996 226.17 220.368 227.412 218.697 228.577L218.072 229.011C216.924 229.801 215.644 230.575 214.258 230.442C210.891 230.116 207.846 226.359 205.532 224.02L205.411 223.9C199.674 218.167 194.363 211.899 189.72 205.16C188.689 203.662 187.69 202.139 186.719 200.599C188.962 197.844 188.426 192.467 188.551 189.126C188.638 186.777 188.644 184.428 188.658 182.077L188.664 181.603C188.691 180.082 188.757 178.623 187.815 177.37C187.762 177.298 187.647 177.3 187.578 177.338C186.29 178.047 185.894 179.234 185.344 180.565L185.287 180.703C184.618 182.3 183.977 183.913 183.33 185.519C182.652 187.201 182.031 188.908 181.4 190.611C181.107 191.402 180.826 192.197 180.553 192.997C180.385 193.507 180.213 194.015 180.037 194.522L179.993 194.561C179.76 194.77 179.562 194.99 179.39 195.218C178.672 195.595 178.102 196.283 177.833 197.293C177.249 199.493 178.456 201.287 179.532 203.033C183.904 210.127 188.887 216.886 194.428 223.019C197.18 226.064 200.074 228.974 203.087 231.734L203.613 232.214C206.319 234.657 209.259 236.971 212.875 237.544C217.104 238.213 220.548 236.003 223.786 233.456L224.109 233.201C227.179 230.76 230.187 228.232 233.102 225.591C239.045 220.201 244.698 214.414 249.715 208.067C254.596 201.892 259.42 194.988 262.428 187.558C262.612 187.105 262.129 186.632 261.752 187.01C260.282 188.479 258.868 190.028 257.471 191.597C257.432 189.287 257.838 186.958 257.612 184.634C257.337 181.809 257.416 178.689 256.647 175.969Z" fill="#001020"/>
<path fill-rule="evenodd" clip-rule="evenodd" d="M226.3 9.19835C202.569 9.19835 178.025 28.5186 169.325 40.8475C162.012 51.2129 158.075 98.0852 158.075 129.762C158.075 136.387 154.594 148.875 155.61 155.212C159.331 178.434 175.549 197.909 207.645 197.909C239.742 197.909 262.754 184.546 286.611 148.667C298.186 148.667 303.796 139.344 303.877 124.63C303.959 109.916 292.704 104.562 292.704 104.562C292.704 104.562 296.717 46.4945 286.611 31.3763C276.504 16.2584 250.03 9.19835 226.3 9.19835Z" fill="#FFFAEE"/>
<path fill-rule="evenodd" clip-rule="evenodd" d="M235.583 1.57353C220.6 -0.0199606 205.918 1.31892 191.153 4.08932C190.025 4.30398 189.386 5.08141 189.147 6.01598C182.194 6.34962 175.23 6.88561 168.285 7.28508C165.765 7.42993 164.334 10.0458 165.484 12.4079C165.713 12.8772 165.952 13.3338 166.196 13.7903L165.891 13.6849C163.8 12.9808 161.543 12.6337 159.508 13.7512C156.916 15.1735 155.901 18.3118 156.473 21.2003C156.619 21.9378 156.867 22.6446 157.146 23.3342C156.578 23.2947 156.006 23.3078 155.436 23.3867C152.412 23.8081 150.162 26.2445 150.004 29.4886C149.771 34.3872 152.776 39.3569 156.315 42.8637C155.8 43.9749 155.605 45.283 155.818 46.6088C156.243 49.2294 158.081 50.7988 160.214 51.8225C159.324 54.786 158.904 57.8843 159.151 61.0507C159.235 62.1077 160.115 62.9809 161.045 63.195C157.581 73.21 155.828 83.9623 154.568 94.4394C153.67 101.894 153.227 109.391 153.171 116.902C153.146 120.293 153.199 123.687 153.336 127.079L153.389 128.35C153.557 132.016 153.565 135.866 154.192 139.492C152.052 143.315 151.191 148.061 150.827 152.345C150.376 157.648 151.09 163.117 152.683 168.162C158.693 187.222 176.831 199.25 195.05 202.376C211.912 205.269 231.425 201.375 241.28 185.286C241.434 185.031 241.104 184.821 240.912 184.988C233.862 191.01 225.683 193.697 216.798 195.005C201.433 197.262 184.166 193.433 171.838 183.285C165.919 178.412 161.652 171.318 159.775 163.684C158.819 159.782 158.489 155.712 158.865 151.696C159.248 147.622 160.965 144.145 162.05 140.295C162.412 138.996 162.028 137.788 161.272 136.929C161.058 133.803 160.556 130.651 160.364 127.534C160.152 123.991 160.022 120.449 159.976 116.902C159.887 109.545 160.18 102.174 160.77 94.8482C161.848 81.4325 164.71 68.3425 166.392 55.0411C167.013 55.627 167.905 55.8677 168.839 55.3558L168.936 55.3001L169.446 54.9933C169.476 54.9933 169.509 54.9977 169.539 55.0016C173.029 55.3576 176.647 54.8483 179.99 53.7548C183.489 52.6139 186.735 50.858 189.637 48.5182C190.187 51.4547 190.419 54.4221 190.423 57.4159C190.427 59.2861 192.31 60.2567 193.808 59.4577C200.44 55.919 206.775 51.8414 212.79 47.2585C213.493 51.038 214.193 54.8172 214.901 58.6013C215.172 60.0589 216.941 60.6474 218.072 59.9536C222.577 57.2008 226.468 53.5973 229.636 49.3125C230.269 50.5828 230.903 51.8531 231.542 53.1205L232.503 55.0191C233.452 56.8848 234.722 58.9484 236.8 59.5451C238.998 60.1771 240.833 58.6806 241.572 56.5907C241.798 55.9415 242.007 55.2737 242.199 54.6022C244.072 59.0933 246.186 63.4831 248.577 67.671C252.163 73.9523 256.468 79.5493 260.76 85.2912C262.064 87.0342 264.295 85.3701 264.475 83.6761C264.579 82.6795 264.667 81.6786 264.743 80.6819C267.244 85.9828 269.853 91.2344 272.696 96.3336L272.289 98.0092C271.116 102.96 270.142 107.946 269.083 112.923C268.741 114.529 269.554 116.825 271.34 117.098C273.474 117.425 275.493 118.57 277.678 117.782C280.062 116.923 280.533 114.759 281.658 112.708C281.883 112.299 282.144 111.924 282.425 111.568L282.496 111.665C282.672 111.907 283.089 111.643 282.985 111.367L282.863 111.047C283.829 109.969 284.986 109.071 286.05 108.103C288.577 107.656 291.42 108.146 293.162 109.225C297.128 111.682 298.95 116.748 298.987 121.406C299.034 126.858 297.425 132.987 294.708 137.648C293.513 139.698 291.874 141.551 289.71 142.46C287.561 143.364 285.233 143.083 283.048 143.934C281.602 144.501 280.711 146.187 281.585 147.714C281.643 147.82 281.71 147.916 281.773 148.017L281.123 148.923C280.676 149.551 280.21 150.223 279.775 150.923C278.664 152.266 277.494 153.562 276.361 154.883C274.267 157.319 272.236 159.821 270.176 162.292C268.232 164.624 266.176 166.814 264.057 168.969C262.055 171.011 259.556 172.727 257.717 174.905C255.929 177.029 255.443 180.738 258.386 181.968C261.641 183.331 264.523 180.135 266.715 178.005L266.807 177.916C270.824 174.033 274.452 169.595 277.332 164.71C280.186 166.751 284.314 166.945 287.155 164.906C288.651 163.832 289.798 162.028 290.355 160.066C290.881 160.19 291.406 160.262 291.919 160.254C292.182 160.415 292.447 160.571 292.714 160.717C294.834 161.875 297.437 161.358 298.407 158.895C299.29 156.659 298.38 154.119 297.585 151.965L297.42 151.52C296.969 150.291 296.472 148.952 295.853 147.692C297.575 146.331 299.046 144.641 300.291 142.719C304.475 136.244 306.565 126.774 305.641 119.049C305.085 114.387 303 109.558 299.586 106.415L299.71 106.072C300.668 103.522 301.537 100.963 302.101 98.2678C302.761 95.1159 303.084 91.8498 303.376 88.641C303.994 81.8631 303.827 74.9316 303.004 68.1801C301.457 55.4716 297.537 42.996 290.579 32.4209C292.552 29.9403 294.115 27.0211 293.3 23.6634C292.928 22.122 292.08 20.6607 290.8 19.778C290.094 19.2911 289.254 19.2165 288.548 18.8127L288.335 18.6898C288.025 18.4997 288.262 18.5198 288.447 17.6362C289.179 14.1064 288.573 10.6959 284.874 9.52386C281.393 8.42202 278.099 10.7618 276.039 13.5493C270.648 9.53221 263.543 7.42993 257.295 5.6433C250.19 3.61917 242.902 2.35535 235.583 1.57353ZM293.818 119.966C293.843 117.091 291.248 115.317 288.694 115.787C286.979 116.101 285.548 117.176 284.205 118.287L283.55 118.831C281.914 120.18 280.036 121.635 279.061 123.544C277.632 126.363 280.653 130.155 283.474 128.179C285.409 126.817 286.649 124.635 287.919 122.607L288.05 122.398C288.627 121.489 289.133 120.524 289.923 119.795L290.094 119.638C290.353 119.405 290.632 119.193 290.968 119.093C291.615 118.897 292.813 119.171 293.099 119.98L293.124 120.063C293.229 120.471 293.813 120.383 293.818 119.966Z" fill="#001020"/>
<path fill-rule="evenodd" clip-rule="evenodd" d="M201.073 166.885C203.882 165.682 206.389 163.674 208.222 161.108C208.859 160.217 209.024 159.275 208.891 158.413C208.741 157.445 208.195 156.567 207.451 155.979C206.705 155.388 205.771 155.097 204.869 155.245C204.084 155.374 203.305 155.825 202.685 156.76L202.557 156.948C201.467 158.496 200.048 159.766 198.43 160.585C196.871 161.374 195.127 161.742 193.323 161.528C189.884 161.12 187.517 159.168 184.998 156.517C184.686 156.182 184.373 155.837 184.061 155.486C183.863 155.168 183.588 154.964 183.281 154.856C182.943 154.737 182.559 154.744 182.207 154.873C181.869 154.997 181.566 155.232 181.362 155.546C181.17 155.843 181.06 156.211 181.095 156.634C181.327 159.382 182.694 161.834 184.636 163.759C186.794 165.898 189.655 167.377 192.347 167.896C195.313 168.468 198.335 168.058 201.073 166.885ZM190.947 124.498C187.792 126.513 182.982 131.211 186.377 136.206C190.375 140.611 196.128 135.561 198.964 133.277C201.593 131.507 204.547 136.059 202.108 138.126C181.62 154.059 173.303 125.025 189.35 122.129C191.119 121.81 191.774 123.875 190.947 124.498ZM227.663 105.964C227.314 101.418 220.723 100.385 220.066 104.884C219.48 108.914 220.171 112.616 221.899 116.244C223.55 119.71 227.701 118.093 228.014 114.937C228.435 110.706 227.88 108.792 227.663 105.964ZM177.485 103.951C176.565 102.687 175.24 101.824 173.649 102.312C168.682 103.836 170.146 111.243 171.891 114.848C172.838 116.806 175.903 117.303 177.287 115.579C179.544 112.768 180.624 107.153 177.756 104.384C177.677 104.241 177.592 104.097 177.485 103.951ZM221.969 86.0711L221.184 85.927C218.756 85.486 215.74 85.0623 214.022 87.1119C213.11 88.1988 212.798 90.2192 214.022 91.2595C216.175 93.09 218.556 92.3805 221.136 92.5354C223.262 92.6638 225.306 93.0333 227.354 93.6483C231.848 94.9973 235.509 97.46 239.347 100.164C239.851 100.519 240.365 99.8424 240.125 99.3476C237.909 94.7896 233.616 91.0456 229.315 88.7634C227.02 87.5452 224.508 86.5347 221.969 86.0711ZM182.013 84.0294L181.412 84.1584C174.878 85.5934 166.385 88.4595 163.292 95.2021C163.173 96.1555 163.297 96.3599 163.4 96.4932L163.434 96.5376C163.517 96.6517 163.582 96.8089 163.976 96.9387C164.087 96.9113 164.196 96.8824 164.308 96.8517C165.727 96.4612 166.848 95.9233 167.934 95.3652L169.113 94.7554C170.48 94.0515 171.859 93.3731 173.321 92.8723C176.439 91.8039 179.647 91.0512 182.903 90.6493C183.61 90.5623 184.29 90.312 184.826 89.8831C185.337 89.476 185.724 88.9123 185.902 88.1629C186.132 87.1931 186.067 86.4589 185.57 85.5841C185.198 84.9271 184.664 84.4718 184.053 84.2103C183.43 83.9437 182.719 83.8809 182.013 84.0294Z" fill="#001020"/>
</g>
</g>
<defs>
<clipPath id="clip0_187_319">
<rect width="494.33" height="494.33" fill="white" transform="matrix(-1 0 0 1 494.665 0.89032)"/>
</clipPath>
<clipPath id="clip1_187_319">
<rect width="342.229" height="494.33" fill="white" transform="matrix(-1 0 0 1 418.614 0.89032)"/>
</clipPath>
</defs>
</svg>
